<svg xmlns="http://www.w3.org/2000/svg" xmlns:xlink="http://www.w3.org/1999/xlink" viewBox="0 0 178.5 75.4"><defs><style>.cls-1{fill:url(#linear-gradient);}.cls-2{fill:#25416a;}.cls-3{fill:#5ea1d5;}.cls-4{fill:url(#linear-gradient-2);}.cls-5{fill:url(#linear-gradient-3);}</style><linearGradient id="linear-gradient" x1="92" y1="6.14" x2="119.82" y2="6.14" gradientUnits="userSpaceOnUse"><stop offset="0" stop-color="#fff"/><stop offset="0.03" stop-color="#f7fbfd"/><stop offset="0.28" stop-color="#c1ddf1"/><stop offset="0.5" stop-color="#97c6e7"/><stop offset="0.7" stop-color="#79b6e0"/><stop offset="0.88" stop-color="#67acdc"/><stop offset="1" stop-color="#60a8da"/></linearGradient><linearGradient id="linear-gradient-2" x1="73.89" y1="13.09" x2="112.65" y2="13.09" xlink:href="#linear-gradient"/><linearGradient id="linear-gradient-3" x1="93.23" y1="0.74" x2="93.23" y2="25.23" gradientUnits="userSpaceOnUse"><stop offset="0" stop-color="#fff"/><stop offset="0" stop-color="#fefeff"/><stop offset="0.18" stop-color="#cfe5f5"/><stop offset="0.35" stop-color="#a8d0ec"/><stop offset="0.52" stop-color="#89c0e5"/><stop offset="0.69" stop-color="#73b4e1"/><stop offset="0.85" stop-color="#66adde"/><stop offset="1" stop-color="#62abdd"/></linearGradient></defs><title>paradigma-logo</title><g id="Capa_2" data-name="Capa 2"><g id="Capa_1-2" data-name="Capa 1"><path class="cls-1" d="M118.14,12.27S129.7-4.35,92.25,1.1L92,3.15s34.71-3,26,8.68"/><path class="cls-2" d="M20.68,54.4a13.07,13.07,0,0,1-2.24,6.36,7.1,7.1,0,0,1-6.06,3.18,6.36,6.36,0,0,1-5.75-2.85l-.84,8H0L2.55,44.77H7.87L8,47.27a7.4,7.4,0,0,1,2.71-2A8.07,8.07,0,0,1,14,44.53Q21.71,44.54,20.68,54.4Zm-6-.07a11.64,11.64,0,0,0,0-3.91,2.82,2.82,0,0,0-3.07-2,3.47,3.47,0,0,0-3.36,2.06,12.08,12.08,0,0,0-.89,3.88,11.07,11.07,0,0,0,.08,3.86,2.72,2.72,0,0,0,2.93,2.07,3.59,3.59,0,0,0,3.5-2A12.47,12.47,0,0,0,14.64,54.33Z"/><path class="cls-2" d="M38.73,63.58H33.52l-.1-2.47a6,6,0,0,1-2.79,2,9.36,9.36,0,0,1-3.47.65q-7,0-6.32-6.48a6.57,6.57,0,0,1,2.84-4.87,9.87,9.87,0,0,1,5.89-1.69,6.47,6.47,0,0,1,4.7,1.61l.26-2.49q.24-2.29-3.51-2.3a14.16,14.16,0,0,0-5.91,1.16l-.21-3a23,23,0,0,1,7.9-1.37q7.95,0,7.23,6.88Zm-5-6.55q.39-3.7-3.1-3.71t-4,3.73q-.36,3.42,3.2,3.42A3.45,3.45,0,0,0,33.78,57Z"/><path class="cls-2" d="M55.26,49.38A7.21,7.21,0,0,0,51,50.62a6.09,6.09,0,0,0-2.61,4.6l-.88,8.38H41.76l2-18.75h5.64L49,48.74a6.66,6.66,0,0,1,2.15-3,5.58,5.58,0,0,1,3.54-1.34,4.84,4.84,0,0,1,1.12.1Z"/><path class="cls-2" d="M72.28,63.64H67.07L67,61.16a6,6,0,0,1-2.79,2,9.32,9.32,0,0,1-3.47.65q-7,0-6.32-6.47a6.57,6.57,0,0,1,2.84-4.87,9.87,9.87,0,0,1,5.89-1.69,6.46,6.46,0,0,1,4.7,1.61l.26-2.49q.24-2.29-3.51-2.3a14.16,14.16,0,0,0-5.91,1.16l-.21-3a23,23,0,0,1,7.9-1.37q7.95,0,7.23,6.88Zm-5-6.55q.39-3.71-3.1-3.71t-4,3.73q-.36,3.42,3.2,3.42A3.45,3.45,0,0,0,67.33,57.08Z"/><path class="cls-2" d="M93.26,63.67H87.94l-.1-2.5a7.3,7.3,0,0,1-2.7,2,8.12,8.12,0,0,1-3.36.75q-7.71,0-6.67-9.86a12.65,12.65,0,0,1,2.32-6.37,7.52,7.52,0,0,1,6.36-3.18q3.89,0,5.4,2.67L90,39h5.8Zm-4.73-9.54a11.11,11.11,0,0,0-.08-3.87,2.72,2.72,0,0,0-2.93-2.09,3.59,3.59,0,0,0-3.51,2,12.56,12.56,0,0,0-.86,3.9,11.72,11.72,0,0,0,0,3.92q.57,2,3.08,2A3.48,3.48,0,0,0,87.64,58,12.13,12.13,0,0,0,88.53,54.13Z"/><path class="cls-2" d="M102.23,63.69H96.41l2-18.76h5.82Zm2.16-20.63H98.57L99,39h5.82Z"/><path class="cls-2" d="M123.77,61.15a8.58,8.58,0,0,1-3.63,6.46,13.06,13.06,0,0,1-7.76,2.11,20.57,20.57,0,0,1-7.3-1.26l1.12-3.37a16.39,16.39,0,0,0,5.85,1.05q5.62,0,6-3.81l.21-2q-1.76,3.16-6.31,3.15a6.09,6.09,0,0,1-5.73-3,10.35,10.35,0,0,1-1-6.32,11.22,11.22,0,0,1,2.7-6.6,9,9,0,0,1,7-2.84,5.13,5.13,0,0,1,4.83,2.56L120,45h5.46Zm-5-7.81q.6-5.75-2.94-5.76-3.92,0-4.56,6.07a10.29,10.29,0,0,0,.23,4.65q.71,1.62,3,1.62a3.47,3.47,0,0,0,3.44-2.37A17.21,17.21,0,0,0,118.75,53.34Z"/><path class="cls-2" d="M157,63.77h-5.82l1.38-13.17a1.58,1.58,0,0,0-.69-1.46,2.79,2.79,0,0,0-1.71-.55,5.25,5.25,0,0,0-4.2,2l-1.38,13.17h-5.78l1.38-13.17a1.53,1.53,0,0,0-.7-1.49,3,3,0,0,0-1.77-.52,5.5,5.5,0,0,0-4.06,1.66l-1.42,13.51h-5.8l2-18.75h5.21l.07,3q2.32-3.35,7.24-3.34,4.14,0,5,3.52a7.29,7.29,0,0,1,3-2.72,11.1,11.1,0,0,1,4.11-.78,4.94,4.94,0,0,1,4.24,1.71,5.46,5.46,0,0,1,1.1,4.19Z"/><path class="cls-2" d="M177.15,63.81h-5.21l-.1-2.47a6,6,0,0,1-2.79,2,9.33,9.33,0,0,1-3.47.65q-7,0-6.32-6.48a6.57,6.57,0,0,1,2.84-4.87A9.87,9.87,0,0,1,168,51a6.46,6.46,0,0,1,4.7,1.61l.26-2.49q.24-2.3-3.51-2.3A14.16,14.16,0,0,0,163.52,49l-.21-3a23,23,0,0,1,7.9-1.37q7.95,0,7.23,6.88Zm-5-6.55q.39-3.71-3.1-3.71t-4,3.73q-.36,3.42,3.2,3.42A3.45,3.45,0,0,0,172.2,57.25Z"/><path class="cls-2" d="M17.11,71.68h1v0q0,1.09,1.58,1.09a1.54,1.54,0,0,0,1-.35,1.21,1.21,0,0,0,.44-1,1.11,1.11,0,0,0-.5-.91,4.81,4.81,0,0,0-1-.5l-.39-.15a4.32,4.32,0,0,1-1.35-.8,1.88,1.88,0,0,1-.58-1.4,1.75,1.75,0,0,1,.74-1.53,2.9,2.9,0,0,1,1.7-.45,3,3,0,0,1,1.39.28,1.21,1.21,0,0,1,.71,1.15v0h-1v0a.6.6,0,0,0-.45-.56,2.05,2.05,0,0,0-.77-.13,1.58,1.58,0,0,0-1,.28,1,1,0,0,0-.42.88,1.17,1.17,0,0,0,.53,1,6,6,0,0,0,1,.53l.45.19a4.08,4.08,0,0,1,1.26.78,1.8,1.8,0,0,1,.55,1.33,1.92,1.92,0,0,1-.76,1.63,2.82,2.82,0,0,1-1.74.5q-2.51,0-2.51-1.83Z"/><path class="cls-2" d="M25.44,73.48a2.3,2.3,0,0,1-1.88-.82,3.44,3.44,0,0,1,0-4,2.56,2.56,0,0,1,3.75,0,3.43,3.43,0,0,1,0,4A2.3,2.3,0,0,1,25.44,73.48Zm0-.74a1.36,1.36,0,0,0,1.22-.66,2.86,2.86,0,0,0,0-2.8,1.45,1.45,0,0,0-2.44,0,2.86,2.86,0,0,0,0,2.8A1.36,1.36,0,0,0,25.44,72.75Z"/><path class="cls-2" d="M30.44,73.34h-.88V68.77h-.77V68h.77v-.25q0-2.12,1.76-2.11a5.23,5.23,0,0,1,.75.07v.72a4.67,4.67,0,0,0-.59,0,1,1,0,0,0-.82.31,1.52,1.52,0,0,0-.21.89V68H32v.74H30.44Z"/><path class="cls-2" d="M36.13,72.59v.74a4.52,4.52,0,0,1-1,.16q-1.7,0-1.7-1.85V68.77h-.92V68h.92V66.78h.88V68h1.55v.74H34.32v2.47a2.62,2.62,0,0,0,.15,1.05.87.87,0,0,0,.87.46A3,3,0,0,0,36.13,72.59Z"/><path class="cls-2" d="M38.15,73.34,36.64,68h.93l.93,3.3.12.79h.1l.14-.79.95-3.3h.89l1.05,3.29.18.8H42l.14-.8L43.1,68h.83l-1.52,5.31h-.89l-1.09-3.47-.15-.77h-.08l-.16.77-1,3.47Z"/><path class="cls-2" d="M48.05,73.34a2.45,2.45,0,0,1-.14-.74,2.57,2.57,0,0,1-1.78.88A1.56,1.56,0,0,1,45,73.09,1.38,1.38,0,0,1,44.6,72a1.54,1.54,0,0,1,1-1.41,8.31,8.31,0,0,1,1.82-.5l.47-.09v-.6q0-.88-1.12-.88a1.58,1.58,0,0,0-.77.18.69.69,0,0,0-.4.63v.08h-1v-.07a1.18,1.18,0,0,1,.3-.73,2.23,2.23,0,0,1,1.86-.75,2,2,0,0,1,1.75.66,2.14,2.14,0,0,1,.22,1.15v2.06A5.53,5.53,0,0,0,49,73.34Zm-.14-2.68-.27.07a9.57,9.57,0,0,0-1.29.38c-.54.24-.81.55-.81.94a.71.71,0,0,0,.27.57.94.94,0,0,0,.6.2,1.37,1.37,0,0,0,.74-.22,1.62,1.62,0,0,0,.55-.58,1.68,1.68,0,0,0,.2-.83Z"/><path class="cls-2" d="M51,73.34h-.88V68H51V69a1.79,1.79,0,0,1,1.63-1.08,1.24,1.24,0,0,1,.47.08v.92a1.5,1.5,0,0,0-.66-.15,1.22,1.22,0,0,0-1.12.66A2.6,2.6,0,0,0,51,70.71Z"/><path class="cls-2" d="M57.39,72h.88v0a1.19,1.19,0,0,1-.28.72,2.12,2.12,0,0,1-1.8.75,2.35,2.35,0,0,1-1.88-.79,2.9,2.9,0,0,1-.65-2,3,3,0,0,1,.65-2,2.25,2.25,0,0,1,1.84-.86q2.15,0,2.15,2.62v.29H54.54A2.09,2.09,0,0,0,55,72.17a1.57,1.57,0,0,0,1.29.57A1.61,1.61,0,0,0,57,72.6a.61.61,0,0,0,.39-.58ZM54.6,70.13h2.86V70a1.33,1.33,0,0,0-1.4-1.41,1.27,1.27,0,0,0-1,.48A2.16,2.16,0,0,0,54.6,70.13Z"/><path class="cls-2" d="M62.76,73.34V66h4.17v.81H63.72v2.54h2.8v.74h-2.8v3.28Z"/><path class="cls-2" d="M71.42,73.34a2.44,2.44,0,0,1-.14-.74,2.58,2.58,0,0,1-1.78.88,1.56,1.56,0,0,1-1.09-.39A1.37,1.37,0,0,1,68,72a1.54,1.54,0,0,1,1-1.41,8.33,8.33,0,0,1,1.82-.5l.47-.09v-.6q0-.88-1.12-.88a1.58,1.58,0,0,0-.76.18.69.69,0,0,0-.4.63v.08H68v-.07a1.18,1.18,0,0,1,.3-.73,2.23,2.23,0,0,1,1.86-.75,2,2,0,0,1,1.75.66,2.14,2.14,0,0,1,.22,1.15v2.06a5.52,5.52,0,0,0,.19,1.58Zm-.14-2.68-.27.07a9.71,9.71,0,0,0-1.29.38c-.54.24-.81.55-.81.94a.7.7,0,0,0,.27.57,1,1,0,0,0,.6.2,1.36,1.36,0,0,0,.74-.22,1.61,1.61,0,0,0,.55-.58,1.68,1.68,0,0,0,.2-.83Z"/><path class="cls-2" d="M76.84,72h.89v0a1.21,1.21,0,0,1-.27.72,2,2,0,0,1-1.75.75,2.23,2.23,0,0,1-1.86-.81,3.72,3.72,0,0,1,0-4,2.23,2.23,0,0,1,1.86-.81,2.12,2.12,0,0,1,1.75.72,1.17,1.17,0,0,1,.27.74v0h-.89v0q0-.73-1.08-.73a1.35,1.35,0,0,0-1.23.65,3.14,3.14,0,0,0,0,2.83,1.35,1.35,0,0,0,1.23.65,1.52,1.52,0,0,0,.71-.15.61.61,0,0,0,.37-.58Z"/><path class="cls-2" d="M82.08,72.59v.74a4.53,4.53,0,0,1-1,.16q-1.7,0-1.7-1.85V68.77h-.92V68h.92V66.78h.88V68h1.55v.74H80.28v2.47a2.64,2.64,0,0,0,.15,1.05.87.87,0,0,0,.87.46A3,3,0,0,0,82.08,72.59Z"/><path class="cls-2" d="M85.4,73.48a2.3,2.3,0,0,1-1.88-.82,3.44,3.44,0,0,1,0-4,2.56,2.56,0,0,1,3.75,0,3.42,3.42,0,0,1,0,4A2.29,2.29,0,0,1,85.4,73.48Zm0-.74a1.36,1.36,0,0,0,1.22-.66,2.85,2.85,0,0,0,0-2.8,1.45,1.45,0,0,0-2.44,0,2.86,2.86,0,0,0,0,2.8A1.37,1.37,0,0,0,85.4,72.75Z"/><path class="cls-2" d="M89.93,73.34H89V68h.88V69a1.79,1.79,0,0,1,1.62-1.08A1.25,1.25,0,0,1,92,68v.92a1.51,1.51,0,0,0-.67-.15,1.22,1.22,0,0,0-1.12.66,2.61,2.61,0,0,0-.31,1.33Z"/><path class="cls-2" d="M94.53,73.11,92.25,68h1L95,72,96.67,68h.89l-2.24,5.31a5.74,5.74,0,0,1-.81,1.49,1.93,1.93,0,0,1-1.5.57h-.66v-.74h.5a1.38,1.38,0,0,0,1-.36,4.24,4.24,0,0,0,.54-1Z"/><polygon class="cls-3" points="83.66 31.22 87.62 26.28 98.17 22.43 87.15 33.36 83.66 31.22"/><path class="cls-4" d="M102,2.15S84.23-1.75,76.61,9c0,0-5.59,6.72-.74,12.05,0,0,5,5.67,14.33,3,0,0,4.63-1.53,6.13-5.4,0,0,7.59,2.13,13.14-2,0,0,5.81-4.47,1.7-10C108.84,3.45,102,2.15,102,2.15Z"/><path class="cls-3" d="M76.61,9S71,15.76,75.87,21.09c0,0,5,5.67,14.33,3,0,0,4.63-1.53,6.13-5.4,0,0,7.59,2.13,13.14-2C109.48,16.68,83.33,18,76.61,9Z"/><path class="cls-5" d="M85.27,25.23a13.59,13.59,0,0,1-9.91-3.91c-5-5.5.36-12.4.71-12.83C80.64,2.08,88.65.74,94.56.74a38.24,38.24,0,0,1,7.49.71c.27.05,7.12,1.38,9.57,4.68,4.42,6-1.76,10.81-1.82,10.86a14.74,14.74,0,0,1-8.89,2.67h0a20.45,20.45,0,0,1-4.27-.45c-1.75,3.73-6.1,5.2-6.3,5.27a18.34,18.34,0,0,1-5.08.75ZM94.56,2c-5.63,0-13.23,1.26-17.5,7.25l0,0c-.21.26-5.19,6.38-.76,11.25a12.6,12.6,0,0,0,9,3.51A17.13,17.13,0,0,0,90,23.3s4.36-1.49,5.73-5l.2-.52.54.15a18.47,18.47,0,0,0,4.46.53A13.36,13.36,0,0,0,109.06,16c.21-.16,5.27-4.17,1.57-9.15-2.16-2.92-8.77-4.2-8.83-4.21A37.75,37.75,0,0,0,94.56,2Z"/></g></g></svg>